<svg width="51" height="76" viewBox="0 0 51 76" fill="none" xmlns="http://www.w3.org/2000/svg">
<path d="M24.1022 75.9745L1.13333 63.5539L24.1022 51.1587V75.9745ZM26.117 51.1333L49.8415 63.6303L26.117 76V51.1333ZM27.2756 49.4534L51 36.7274V61.925L27.2756 49.4534ZM26.117 47.7736V28.2009C34.5188 28.3635 42.7357 30.7223 49.9674 35.0475L26.117 47.7736ZM24.1022 47.7736L1.03259 34.6403C8.0787 30.609 16.0069 28.4135 24.1022 28.2518V47.7736ZM23.0193 49.4789L0 61.925V36.4729L23.0193 49.4789ZM51 33.4186C43.4586 28.8969 34.8843 26.4324 26.117 26.2666V21.4052L51 8.67916V33.4186ZM24.1022 26.1648C15.642 26.3336 7.3574 28.6345 0 32.8587V8.57735L24.1022 21.3034V26.1648ZM49.9422 6.84661L25.1096 19.5727L0.629629 6.64299C8.12952 2.25709 16.6482 -0.0353662 25.3132 0.000412471C33.9782 0.0361911 42.478 2.39892 49.9422 6.84661Z" fill="#00245B"/>
</svg>
